PathFileType	4	(X/Y/Z)	Patient4_TMGait_0pt2_01_right_04.trc.trc
DataRate	CameraRate	NumFrames	NumMarkers	Units	OrigDataRate	OrigDataStartFrame	OrigNumFrames
43.887147335423	43.887147335423	4	33	mm	43.887147335423	36	       141
Frame#	Time	Sacral			L.Shoulder			Chest			R.Shoulder			Neck			R.ASIS			L.ASIS			R.Thigh.Superior			R.Thigh.Lateral			R.Thigh.Inferior			R.Patella			L.Thigh.Superior			L.Thigh.Lateral			L.Thigh.Inferior			L.Patella			L.Shank.Superior			L.Shank.Lateral			L.Shank.Inferior			R.Shank.Superior			R.Shank.Lateral			R.Shank.Inferior			R.Heel			R.Midfoot.Superior			R.Midfoot.Lateral			R.Toe			L.Heel			L.Midfoot.Lateral			L.Midfoot.Superior			L.Toe			L.Elbow			L.Wrist			R.Elbow			R.Wrist			
		X1	Y1	Z1	X2	Y2	Z2	X3	Y3	Z3	X4	Y4	Z4	X5	Y5	Z5	X6	Y6	Z6	X7	Y7	Z7	X8	Y8	Z8	X9	Y9	Z9	X10	Y10	Z10	X11	Y11	Z11	X12	Y12	Z12	X13	Y13	Z13	X14	Y14	Z14	X15	Y15	Z15	X16	Y16	Z16	X17	Y17	Z17	X18	Y18	Z18	X19	Y19	Z19	X20	Y20	Z20	X21	Y21	Z21	X22	Y22	Z22	X23	Y23	Z23	X24	Y24	Z24	X25	Y25	Z25	X26	Y26	Z26	X27	Y27	Z27	X28	Y28	Z28	X29	Y29	Z29	X30	Y30	Z30	X31	Y31	Z31	X32	Y32	Z32	X33	Y33	Z33	

36	7.827500000000	848.795900691970	1001.204625280058	527.354539743433	1032.552577250269	1425.238679685670	350.291045972382	1125.550091918607	1364.199393639473	519.898091532177	1027.710802804153	1439.367092966630	685.373382875036	1003.849113353720	1490.715388096798	509.285488660146	1074.200963753548	942.228761232826	658.040964109303	1072.108405122713	953.294841785141	382.668516986205	1126.858276972081	745.466035623550	620.532292480296	1056.386147284876	627.674059879150	679.185652899745	1136.383725480863	582.488716379518	597.137102186960	1143.650616185241	490.917185266876	602.366169063176	1071.991639701077	723.265586280167	400.585922863700	958.054401270152	632.020914935391	326.576741185488	1020.275235940532	533.400025462450	381.480375892096	1002.465362771735	460.893713882914	382.832204585354	950.190188491373	403.066521134596	368.656788000962	826.672680455151	331.460375147981	309.190324122358	838.960332539932	201.515868048009	364.893150671262	1109.138228295101	401.355112197444	606.003343119408	1033.873875592367	300.565823784951	669.253679430243	1066.316348555667	205.247023448175	602.326180655703	919.357066100119	45.315758430624	578.690625607349	1094.038025597760	97.361287905863	606.631889518183	1006.054973082866	38.160579755137	648.762447169027	1213.741362525199	41.473670713011	629.573863929289	668.156157362123	81.285688310996	388.552759355928	742.528263721499	61.480372577605	311.892532639466	836.200104533916	105.296295122470	340.474258630059	949.618773129909	36.640230875642	315.882146860600	1112.859350195494	1105.081512433292	196.636329704428	1359.073221623866	1016.167475782561	209.451479471617	958.208262188575	1111.802611123821	830.801764512145	1045.854371340275	867.310997122411	864.392010440939	
37	7.850285714286	850.382335959036	1000.971107852895	533.384648199661	1031.107000879185	1425.253169137019	354.404855222716	1125.875189457993	1364.801965466884	523.250950452486	1029.338871037570	1439.813279118735	689.570986362303	1003.841380994351	1490.973700776672	513.455723707641	1076.775879044649	942.462725365582	662.491126185524	1072.884707465040	953.796523305788	387.062821750818	1127.997063754495	744.771180181183	624.623116621882	1056.288626189947	627.106307911742	682.592089566570	1135.887742925809	581.744101371831	600.401700292658	1142.195056886083	489.954383183747	605.035934447804	1075.542734399083	724.143657327007	404.362200261232	962.879638999034	631.770662899632	330.422762157530	1026.881706856098	533.380237510429	384.441551191011	1009.576898361401	459.698166669569	384.846984150564	955.177690647539	402.706599896529	370.762188594979	829.756649746170	334.236271380304	311.490444696067	839.732368646004	203.519439444402	365.659689430962	1107.008724702893	400.648284314111	608.150738260910	1030.977426081186	300.015468086584	670.701845043115	1062.837621897990	204.939107864527	603.284200141842	915.059125625358	45.295139559717	578.828220730577	1089.786223636069	97.396810062594	606.835211273064	1001.797602515052	38.111645917835	648.860103738681	1209.454464318904	41.445687712216	629.611036918724	666.168711941087	87.637755360175	388.915361953420	739.754357666014	65.533275103611	312.157435878862	834.776072820421	106.519291832102	340.462772627424	945.560193591083	36.402149422532	315.932629653321	1102.963028663668	1100.413007734288	203.779135668425	1342.600598704589	995.231310570476	214.515351319380	970.411785929394	1111.875617964222	839.430243321251	1070.419529057100	872.284243275358	873.645254553938	
38	7.873071428571	851.769087517637	1000.730647203033	539.100286006148	1029.347257104573	1425.308431536289	358.320779735957	1125.876216537396	1365.441681161448	526.387672740713	1030.647937562978	1440.263000072489	693.560954449649	1003.508991424177	1491.243824749917	517.429680322646	1079.079104214963	942.714604010004	666.648307979799	1073.481330688371	954.363490749448	391.212837444478	1128.869947464418	744.135970134359	628.382075257479	1055.935369415912	626.579079404649	685.691088386354	1135.086375065090	581.048648644437	603.349022946020	1140.413273106746	489.070995336912	607.383414770709	1079.160240936838	725.085296575162	407.939540980834	968.002802952148	631.472236409320	333.989652883348	1033.777982788286	533.413792591079	387.332415735149	1016.969456482723	458.574957426660	386.740732448811	960.513807259337	402.402275710127	372.726518042993	833.299029595478	337.122573898265	313.626529336890	840.822183984992	205.695744227854	366.304774627948	1104.643031431436	400.022237231975	610.037169505986	1027.958212513917	299.538640401969	671.937513882953	1059.250623645942	204.691469698117	604.078289430251	910.708001731841	45.381913458942	578.920931175839	1085.495457821172	97.427019816810	606.978716511767	997.480116076739	38.129626531717	648.912808556121	1205.098389239974	41.376921854978	629.640768778892	664.536707913251	94.507549351291	389.224354613193	737.191325963363	69.935865861369	312.375273315267	833.557810781626	107.832924800165	340.378829110234	941.449060000747	36.108908339461	315.974895306338	1092.171556694537	1095.887924886763	211.006215968258	1323.278434887126	973.604231773361	219.381052074828	983.051718985230	1112.092708677470	847.528938346494	1095.539879238860	878.159780682373	882.046603955262	
39	7.895857142857	853.011322767243	1000.485683879787	544.552570701472	1027.281292184980	1425.396593301654	362.042912209411	1125.564289903654	1366.135781061845	529.318663655235	1031.643042524216	1440.740791222095	697.343784834766	1002.840753036585	1491.526116626552	521.196705069372	1081.167399427284	942.983723943852	670.536836826994	1073.908251857173	954.999969075011	395.154186677837	1129.574623377621	743.575750314420	631.795225545310	1055.472206965565	626.099441717493	688.495283394963	1134.103198799362	580.413476046610	605.969417070352	1138.465732582205	488.263550450404	609.402437437047	1082.791769858095	726.109326497979	411.317814838997	973.340163566860	631.211456834018	337.255720242986	1040.851463540620	533.557288093787	390.132271404252	1024.525762913145	457.597392983474	388.480243865491	966.110416066435	402.219152564294	374.520856498713	837.209010206044	340.184518051499	315.596187572091	842.186114586027	208.114469229440	366.825766260664	1102.163123805683	399.470289824126	611.653636016504	1024.920323698217	299.141970055066	672.974974268710	1055.607318760362	204.498263148700	604.701890292340	906.293942318392	45.582996968496	578.973345654395	1081.167821146702	97.453853932549	607.062340217920	993.096447034422	38.215037581296	648.920569883228	1200.675879422991	41.246303731200	629.663896624136	663.285593584273	101.967475758543	389.521083846334	734.834980070112	74.768188544906	312.579162866091	832.515273073234	109.312037458387	340.235264270895	937.245161643077	35.727508764607	316.005376546615	1080.552765055172	1091.584770332867	218.328197243116	1301.022743674354	951.727619066083	224.077375172420	996.024945091711	1112.515609905821	855.015534707891	1120.998064369429	885.031774153325	889.506514201164	
